REM DIRINDEX 1\2,1\3,1\4,1\5
REM DIRNAME cjc046,folder01,folder02,folder03,folder04
TITLE ""
FILE "177.mp3" MP3
  TRACK 01 AUDIO
    TITLE "0:"
    INDEX 01 00:00:00
  TRACK 02 AUDIO
    TITLE "2:cjc046_5464"
    INDEX 01 00:00:07
  TRACK 03 AUDIO
    TITLE "0:"
    INDEX 01 00:01:21
  TRACK 04 AUDIO
    TITLE "3:cjc046_5465"
    INDEX 01 00:01:40
  TRACK 05 AUDIO
    TITLE "0:"
    INDEX 01 00:03:45
  TRACK 06 AUDIO
    TITLE "4:cjc046_5466"
    INDEX 01 00:03:59
  TRACK 07 AUDIO
    TITLE "0:"
    INDEX 01 00:04:72
  TRACK 08 AUDIO
    TITLE "2:cjc046_5467"
    INDEX 01 00:05:73
  TRACK 09 AUDIO
    TITLE "0:"
    INDEX 01 00:07:15
  TRACK 10 AUDIO
    TITLE "3:cjc046_5468"
    INDEX 01 00:07:29
  TRACK 11 AUDIO
    TITLE "0:"
    INDEX 01 00:08:56
  TRACK 12 AUDIO
    TITLE "4:cjc046_5469"
    INDEX 01 00:08:66
  TRACK 13 AUDIO
    TITLE "0:"
    INDEX 01 00:10:08
  TRACK 14 AUDIO
    TITLE "2:cjc046_5470"
    INDEX 01 00:11:15
  TRACK 15 AUDIO
    TITLE "0:"
    INDEX 01 00:12:26
  TRACK 16 AUDIO
    TITLE "3:cjc046_5471"
    INDEX 01 00:12:44
  TRACK 17 AUDIO
    TITLE "0:"
    INDEX 01 00:13:35
  TRACK 18 AUDIO
    TITLE "4:cjc046_5472"
    INDEX 01 00:13:57
  TRACK 19 AUDIO
    TITLE "0:"
    INDEX 01 00:14:68
  TRACK 20 AUDIO
    TITLE "2:cjc046_5473"
    INDEX 01 00:16:00
  TRACK 21 AUDIO
    TITLE "0:"
    INDEX 01 00:16:71
  TRACK 22 AUDIO
    TITLE "3:cjc046_5474"
    INDEX 01 00:17:18
  TRACK 23 AUDIO
    TITLE "0:"
    INDEX 01 00:18:21
  TRACK 24 AUDIO
    TITLE "4:cjc046_5475"
    INDEX 01 00:18:39
  TRACK 25 AUDIO
    TITLE "0:"
    INDEX 01 00:19:36
  TRACK 26 AUDIO
    TITLE "2:cjc046_5476"
    INDEX 01 00:20:39
  TRACK 27 AUDIO
    TITLE "0:"
    INDEX 01 00:21:53
  TRACK 28 AUDIO
    TITLE "3:cjc046_5477"
    INDEX 01 00:21:74
  TRACK 29 AUDIO
    TITLE "0:"
    INDEX 01 00:23:26
  TRACK 30 AUDIO
    TITLE "4:cjc046_5478"
    INDEX 01 00:23:42
  TRACK 31 AUDIO
    TITLE "0:"
    INDEX 01 00:24:57
  TRACK 32 AUDIO
    TITLE "2:cjc046_5479"
    INDEX 01 00:25:62
  TRACK 33 AUDIO
    TITLE "0:"
    INDEX 01 00:27:06
  TRACK 34 AUDIO
    TITLE "3:cjc046_5480"
    INDEX 01 00:27:22
  TRACK 35 AUDIO
    TITLE "0:"
    INDEX 01 00:28:47
  TRACK 36 AUDIO
    TITLE "4:cjc046_5481"
    INDEX 01 00:28:68
  TRACK 37 AUDIO
    TITLE "0:"
    INDEX 01 00:30:08
  TRACK 38 AUDIO
    TITLE "2:cjc046_5482"
    INDEX 01 00:31:18
  TRACK 39 AUDIO
    TITLE "0:"
    INDEX 01 00:32:17
  TRACK 40 AUDIO
    TITLE "3:cjc046_5483"
    INDEX 01 00:32:33
  TRACK 41 AUDIO
    TITLE "0:"
    INDEX 01 00:33:36
  TRACK 42 AUDIO
    TITLE "4:cjc046_5484"
    INDEX 01 00:33:54
  TRACK 43 AUDIO
    TITLE "0:"
    INDEX 01 00:34:57
  TRACK 44 AUDIO
    TITLE "2:cjc046_5485"
    INDEX 01 00:35:66
  TRACK 45 AUDIO
    TITLE "0:"
    INDEX 01 00:36:68
  TRACK 46 AUDIO
    TITLE "3:cjc046_5486"
    INDEX 01 00:37:10
  TRACK 47 AUDIO
    TITLE "0:"
    INDEX 01 00:38:35
  TRACK 48 AUDIO
    TITLE "4:cjc046_5487"
    INDEX 01 00:38:39
  TRACK 49 AUDIO
    TITLE "0:"
    INDEX 01 00:39:41
  TRACK 50 AUDIO
    TITLE "2:cjc046_5488"
    INDEX 01 00:40:48
  TRACK 51 AUDIO
    TITLE "0:"
    INDEX 01 00:41:65
  TRACK 52 AUDIO
    TITLE "3:cjc046_5489"
    INDEX 01 00:42:04
  TRACK 53 AUDIO
    TITLE "0:"
    INDEX 01 00:43:33
  TRACK 54 AUDIO
    TITLE "4:cjc046_5490"
    INDEX 01 00:43:52
  TRACK 55 AUDIO
    TITLE "0:"
    INDEX 01 00:44:69
  TRACK 56 AUDIO
    TITLE "2:cjc046_5491"
    INDEX 01 00:46:02
  TRACK 57 AUDIO
    TITLE "0:"
    INDEX 01 00:47:17
  TRACK 58 AUDIO
    TITLE "3:cjc046_5492"
    INDEX 01 00:47:30
  TRACK 59 AUDIO
    TITLE "0:"
    INDEX 01 00:49:18
  TRACK 60 AUDIO
    TITLE "4:cjc046_5493"
    INDEX 01 00:49:37
  TRACK 61 AUDIO
    TITLE "0:"
    INDEX 01 00:50:50
  TRACK 62 AUDIO
    TITLE "2:cjc046_5494"
    INDEX 01 00:51:48
  TRACK 63 AUDIO
    TITLE "0:"
    INDEX 01 00:52:53
  TRACK 64 AUDIO
    TITLE "3:cjc046_5495"
    INDEX 01 00:52:69
  TRACK 65 AUDIO
    TITLE "0:"
    INDEX 01 00:54:30
  TRACK 66 AUDIO
    TITLE "4:cjc046_5496"
    INDEX 01 00:54:42
  TRACK 67 AUDIO
    TITLE "0:"
    INDEX 01 00:55:48
  TRACK 68 AUDIO
    TITLE "2:cjc046_5497"
    INDEX 01 00:56:57
  TRACK 69 AUDIO
    TITLE "0:"
    INDEX 01 00:58:05
  TRACK 70 AUDIO
    TITLE "3:cjc046_5498"
    INDEX 01 00:58:26
  TRACK 71 AUDIO
    TITLE "0:"
    INDEX 01 00:59:47
  TRACK 72 AUDIO
    TITLE "4:cjc046_5499"
    INDEX 01 00:59:65
  TRACK 73 AUDIO
    TITLE "0:"
    INDEX 01 01:01:11
  TRACK 74 AUDIO
    TITLE "2:cjc046_5500"
    INDEX 01 01:02:22
  TRACK 75 AUDIO
    TITLE "0:"
    INDEX 01 01:03:29
  TRACK 76 AUDIO
    TITLE "3:cjc046_5501"
    INDEX 01 01:03:45
  TRACK 77 AUDIO
    TITLE "0:"
    INDEX 01 01:05:42
  TRACK 78 AUDIO
    TITLE "4:cjc046_5502"
    INDEX 01 01:05:56
  TRACK 79 AUDIO
    TITLE "0:"
    INDEX 01 01:06:63
  TRACK 80 AUDIO
    TITLE "2:cjc046_5503"
    INDEX 01 01:07:68
  TRACK 81 AUDIO
    TITLE "0:"
    INDEX 01 01:08:74
  TRACK 82 AUDIO
    TITLE "3:cjc046_5504"
    INDEX 01 01:09:22
  TRACK 83 AUDIO
    TITLE "0:"
    INDEX 01 01:10:18
  TRACK 84 AUDIO
    TITLE "4:cjc046_5505"
    INDEX 01 01:10:37
  TRACK 85 AUDIO
    TITLE "0:"
    INDEX 01 01:11:45
  TRACK 86 AUDIO
    TITLE "2:cjc046_5506"
    INDEX 01 01:12:52
  TRACK 87 AUDIO
    TITLE "0:"
    INDEX 01 01:13:69
  TRACK 88 AUDIO
    TITLE "3:cjc046_5507"
    INDEX 01 01:14:10
  TRACK 89 AUDIO
    TITLE "0:"
    INDEX 01 01:16:26
  TRACK 90 AUDIO
    TITLE "4:cjc046_5508"
    INDEX 01 01:16:42
  TRACK 91 AUDIO
    TITLE "0:"
    INDEX 01 01:17:59
  TRACK 92 AUDIO
    TITLE "2:cjc046_5509"
    INDEX 01 01:18:70
  TRACK 93 AUDIO
    TITLE "0:"
    INDEX 01 01:20:00
  TRACK 94 AUDIO
    TITLE "3:cjc046_5510"
    INDEX 01 01:20:14
  TRACK 95 AUDIO
    TITLE "0:"
    INDEX 01 01:21:12
  TRACK 96 AUDIO
    TITLE "4:cjc046_5511"
    INDEX 01 01:21:27
  TRACK 97 AUDIO
    TITLE "0:"
    INDEX 01 01:22:33
